HIERARCHY
ROOT Hips
{
	OFFSET 0.000000 0.000000 0.000000
	CHANNELS 6 Xposition Yposition Zposition Zrotation Yrotation Xrotation 
	JOINT LHipJoint
	{
		OFFSET 0.000000 0.000000 0.000000
		CHANNELS 3 Zrotation Yrotation Xrotation
		JOINT LeftUpLeg
		{
			OFFSET 1.363060 -1.794630 0.839290
			CHANNELS 3 Zrotation Yrotation Xrotation
			JOINT LeftLeg
			{
				OFFSET 2.448110 -6.726130 0.000000
				CHANNELS 3 Zrotation Yrotation Xrotation
				JOINT LeftFoot
				{
					OFFSET 2.562200 -7.039590 0.000000
					CHANNELS 3 Zrotation Yrotation Xrotation
					JOINT LeftToeBase
					{
						OFFSET 0.157640 -0.433110 2.322550
						CHANNELS 3 Zrotation Yrotation Xrotation
						End Site
						{
							OFFSET 0.000000 0.000000 0.000000
						}
					}
				}
			}
		}
	}
	JOINT RHipJoint
	{
		OFFSET 0.000000 0.000000 0.000000
		CHANNELS 3 Zrotation Yrotation Xrotation
		JOINT RightUpLeg
		{
			OFFSET -1.305520 -1.794630 0.839290
			CHANNELS 3 Zrotation Yrotation Xrotation
			JOINT RightLeg
			{
				OFFSET -2.542530 -6.985550 0.000000
				CHANNELS 3 Zrotation Yrotation Xrotation
				JOINT RightFoot
				{
					OFFSET -2.568260 -7.056230 0.000000
					CHANNELS 3 Zrotation Yrotation Xrotation
					JOINT RightToeBase
					{
						OFFSET -0.164730 -0.452590 2.363150
						CHANNELS 3 Zrotation Yrotation Xrotation
						End Site
						{
							OFFSET 0.000000 0.000000 0.000000
						}
					}
				}
			}
		}
	}
	JOINT LowerBack
	{
		OFFSET 0.000000 0.000000 0.000000
		CHANNELS 3 Zrotation Yrotation Xrotation
		JOINT Spine
		{
			OFFSET 0.028270 2.035590 -0.193380
			CHANNELS 3 Zrotation Yrotation Xrotation
			JOINT Spine1
			{
				OFFSET 0.056720 2.048850 -0.042750
				CHANNELS 3 Zrotation Yrotation Xrotation
				JOINT Neck
				{
					OFFSET 0.000000 0.000000 0.000000
					CHANNELS 3 Zrotation Yrotation Xrotation
					JOINT Neck1
					{
						OFFSET -0.054170 1.746240 0.172020
						CHANNELS 3 Zrotation Yrotation Xrotation
						JOINT Head
						{
							OFFSET 0.104070 1.761360 -0.123970
							CHANNELS 3 Zrotation Yrotation Xrotation
							End Site
							{
								OFFSET 0.000000 0.000000 0.000000
							}
						}
					}
				}
				JOINT LeftShoulder
				{
					OFFSET 0.000000 0.000000 0.000000
					CHANNELS 3 Zrotation Yrotation Xrotation
					JOINT LeftArm
					{
						OFFSET 3.362410 1.200890 -0.311210
						CHANNELS 3 Zrotation Yrotation Xrotation
						JOINT LeftForeArm
						{
							OFFSET 4.983000 -0.000000 -0.000000
							CHANNELS 3 Zrotation Yrotation Xrotation
							JOINT LeftHand
							{
								OFFSET 3.483560 -0.000000 -0.000000
								CHANNELS 3 Zrotation Yrotation Xrotation
								JOINT LeftFingerBase
								{
									OFFSET 0.000000 0.000000 0.000000
									CHANNELS 3 Zrotation Yrotation Xrotation
									JOINT LeftHandIndex1
									{
										OFFSET 0.715260 -0.000000 -0.000000
										CHANNELS 3 Zrotation Yrotation Xrotation
										End Site
										{
											OFFSET 0.000000 0.000000 0.000000
										}
									}
								}
								JOINT LThumb
								{
									OFFSET 0.000000 0.000000 0.000000
									CHANNELS 3 Zrotation Yrotation Xrotation
									End Site
									{
										OFFSET 0.000000 0.000000 0.000000
									}
								}
							}
						}
					}
				}
				JOINT RightShoulder
				{
					OFFSET 0.000000 0.000000 0.000000
					CHANNELS 3 Zrotation Yrotation Xrotation
					JOINT RightArm
					{
						OFFSET -3.136600 1.374050 -0.404650
						CHANNELS 3 Zrotation Yrotation Xrotation
						JOINT RightForeArm
						{
							OFFSET -5.241900 -0.000000 -0.000000
							CHANNELS 3 Zrotation Yrotation Xrotation
							JOINT RightHand
							{
								OFFSET -3.444170 -0.000000 -0.000000
								CHANNELS 3 Zrotation Yrotation Xrotation
								JOINT RightFingerBase
								{
									OFFSET 0.000000 0.000000 0.000000
									CHANNELS 3 Zrotation Yrotation Xrotation
									JOINT RightHandIndex1
									{
										OFFSET -0.622530 -0.000000 -0.000000
										CHANNELS 3 Zrotation Yrotation Xrotation
										End Site
										{
											OFFSET 0.000000 0.000000 0.000000
										}
									}
								}
								JOINT RThumb
								{
									OFFSET 0.000000 0.000000 0.000000
									CHANNELS 3 Zrotation Yrotation Xrotation
									End Site
									{
										OFFSET 0.000000 0.000000 0.000000
									}
								}
							}
						}
					}
				}
			}
		}
	}
}
MOTION
Frames: 6
Frame Time: 0.008333
10.262912 17.654102 1.734440 4.232948 86.667525 -2.078391 6.653399 0.790484 0.148424 -29.657017 -17.384005 7.481168 -0.849555 7.930058 23.149776 -3.680242 19.083140 -19.879519 0.005700 0.486300 1.336300 -10.131513 0.137141 -2.499257 36.092627 14.429787 9.312113 -0.760499 -8.457074 23.678277 3.050311 -21.684768 -26.227109 -1.705100 8.222800 -23.393000 -0.240649 1.193354 3.934639 1.900145 2.210548 2.251046 -7.457121 0.747008 3.650557 4.720469 3.106059 -4.743082 7.844953 2.814689 14.862375 -1.791100 2.538200 5.323000 6.999811 4.902076 -1.061001 -96.452567 -1.971048 18.892778 12.791434 -14.527464 -2.187368 -1.886127 -2.786928 9.251713 15.906870 7.734642 3.363900 -7.125000 0.000000 0.000000 -8.638200 41.170700 0.822700 -10.375707 -5.397929 0.400383 105.585050 -6.623454 14.632684 -13.246877 21.399945 -4.334764 -0.109599 1.200643 -1.478069 -4.429723 4.800078 -0.273400 7.125000 0.000000 0.000000 16.741400 -26.282500 7.919500 
10.263825 17.654673 1.732501 3.718333 86.650717 -2.555312 6.653758 0.797841 0.156372 -29.626528 -17.419728 7.434587 -0.846233 7.943373 23.174322 -3.686496 19.097478 -19.863679 0.005400 0.473400 1.300800 -10.127961 0.143934 -2.505643 36.086693 14.377956 9.287012 -0.754639 -8.444523 23.640505 3.043998 -21.665843 -26.236264 -1.707700 8.228800 -23.411100 -0.165673 1.187232 3.904895 1.900086 2.204418 2.239578 -7.499179 0.745183 3.642414 4.675149 3.077641 -4.761836 7.867502 2.783516 14.938187 -1.765300 2.530800 5.356800 6.998844 4.904059 -1.064154 -96.487692 -2.015706 18.879962 12.807720 -14.550098 -2.200560 -1.888238 -2.749645 9.161770 15.931765 7.496686 3.286700 -7.125000 0.000000 0.000000 -8.553800 40.888800 0.874500 -10.387367 -5.386230 0.392902 105.604178 -6.651410 15.060339 -13.267851 21.403155 -4.321204 -0.050826 1.273044 -2.260632 -5.078047 4.621817 -0.297000 7.125000 0.000000 0.000000 16.241100 -26.528600 7.565300 
10.263939 17.655357 1.731360 2.807212 86.595578 -3.462504 6.653211 0.814931 0.167108 -29.572210 -17.428349 7.407021 -0.839526 7.959242 23.214345 -3.697343 19.128452 -19.855521 0.002900 0.348600 0.957700 -10.128499 0.158820 -2.515474 36.133417 14.359843 9.322107 -0.747723 -8.423840 23.586466 3.049442 -21.650081 -26.158650 -1.691900 8.192400 -23.299900 -0.087672 1.184376 3.939145 1.904908 2.200192 2.225270 -7.527271 0.742730 3.587955 4.626160 3.075084 -4.741532 7.893881 2.785284 14.982670 -1.737700 2.536200 5.371500 7.006922 4.905452 -1.067496 -96.510825 -2.049735 18.872425 12.827809 -14.574799 -2.208111 -1.872833 -2.775037 9.106074 15.870303 7.611179 3.312600 -7.125000 0.000000 0.000000 -8.646900 41.021700 0.855600 -10.409122 -5.378381 0.386083 105.631343 -6.747318 15.460013 -13.319495 21.472820 -4.335931 -0.003506 1.340843 -3.042445 -5.627053 4.467283 -0.311300 7.125000 0.000000 0.000000 15.814300 -26.746200 7.266900 
10.264053 17.655357 1.732045 1.649837 86.553266 -4.629470 6.651824 0.838200 0.174336 -29.478941 -17.386871 7.378409 -0.833205 7.968109 23.238926 -3.720896 19.180100 -19.790958 0.000800 0.185500 0.509700 -10.134601 0.181209 -2.523810 36.246062 14.409830 9.383920 -0.740447 -8.409805 23.546833 3.089841 -21.786240 -26.137578 -1.689100 8.186000 -23.280600 -0.017975 1.182142 3.975570 1.913364 2.196511 2.225184 -7.535162 0.741410 3.575897 4.587088 3.095503 -4.765647 7.924664 2.811171 15.000077 -1.710100 2.550100 5.385700 7.018084 4.902900 -1.070840 -96.533511 -2.089710 18.940357 12.861409 -14.622117 -2.220603 -1.857786 -2.827635 9.103991 15.816004 7.880985 3.394200 -7.125000 0.000000 0.000000 -8.774800 41.344000 0.798100 -10.430158 -5.373567 0.380070 105.672377 -6.840068 15.791465 -13.387853 21.572512 -4.362685 0.043727 1.399641 -3.844380 -6.138883 4.403319 -0.330100 7.125000 0.000000 0.000000 15.398300 -26.866000 7.016700 
10.265536 17.655813 1.732159 1.546756 86.515649 -4.737457 6.652484 0.840482 0.171575 -29.466300 -17.345429 7.348088 -0.825886 7.984421 23.279573 -3.747525 19.262049 -19.769759 0.000500 0.145800 0.400600 -10.135630 0.184137 -2.526796 36.264166 14.422920 9.419538 -0.731863 -8.388875 23.490806 3.093525 -21.809454 -26.160059 -1.702100 8.215900 -23.371800 -0.019467 1.178814 3.966758 1.915382 2.193530 2.238763 -7.524887 0.740468 3.631288 4.564898 3.118183 -4.838626 7.944040 2.837417 15.006131 -1.692400 2.562700 5.405600 7.024323 4.888634 -1.071141 -96.559399 -2.147501 19.036128 12.903980 -14.693147 -2.247626 -1.833982 -2.847580 9.082786 15.722667 7.950577 3.395200 -7.125000 0.000000 0.000000 -8.895300 41.420800 0.792300 -10.439132 -5.363439 0.374032 105.700019 -6.837267 16.177822 -13.436183 21.615353 -4.364525 0.100880 1.460264 -4.731430 -6.742953 4.366965 -0.355400 7.125000 0.000000 0.000000 14.897900 -26.959300 6.739300 
10.267019 17.656612 1.731702 1.335574 86.460641 -4.969187 6.653477 0.844305 0.175676 -29.473802 -17.364761 7.361131 -0.819847 8.000814 23.330496 -3.730139 19.245069 -19.885566 0.001700 0.269400 0.740300 -10.133023 0.186386 -2.535066 36.275283 14.384433 9.470448 -0.724454 -8.364608 23.433053 3.068493 -21.714987 -26.152033 -1.698000 8.206600 -23.343200 -0.005732 1.181489 3.990860 1.916264 2.197506 2.243995 -7.524680 0.743560 3.643968 4.560785 3.119967 -4.889050 7.946681 2.838857 15.021929 -1.687000 2.564800 5.426900 7.032768 4.879981 -1.073262 -96.569977 -2.180626 19.173393 12.935578 -14.751328 -2.276136 -1.798000 -2.851100 8.902304 15.580965 7.888476 3.339400 -7.125000 0.000000 0.000000 -9.029500 41.334800 0.823800 -10.446041 -5.352289 0.366798 105.720273 -6.841467 16.611980 -13.468271 21.625481 -4.350388 0.165048 1.523341 -5.717146 -7.413196 4.351227 -0.385200 7.125000 0.000000 0.000000 14.334900 -27.032200 6.443200 
